%TF.GenerationSoftware,KiCad,Pcbnew,7.0.5-0*%
%TF.CreationDate,2023-07-18T00:38:14+02:00*%
%TF.ProjectId,buslight,6275736c-6967-4687-942e-6b696361645f,rev?*%
%TF.SameCoordinates,Original*%
%TF.FileFunction,Legend,Bot*%
%TF.FilePolarity,Positive*%
%FSLAX46Y46*%
G04 Gerber Fmt 4.6, Leading zero omitted, Abs format (unit mm)*
G04 Created by KiCad (PCBNEW 7.0.5-0) date 2023-07-18 00:38:14*
%MOMM*%
%LPD*%
G01*
G04 APERTURE LIST*
%ADD10C,0.150000*%
G04 APERTURE END LIST*
D10*
X104397744Y-54388628D02*
X104397744Y-54864819D01*
X104731077Y-53864819D02*
X104397744Y-54388628D01*
X104397744Y-54388628D02*
X104064411Y-53864819D01*
X103207268Y-54864819D02*
X103778696Y-54864819D01*
X103492982Y-54864819D02*
X103492982Y-53864819D01*
X103492982Y-53864819D02*
X103588220Y-54007676D01*
X103588220Y-54007676D02*
X103683458Y-54102914D01*
X103683458Y-54102914D02*
X103778696Y-54150533D01*
X102016791Y-54483866D02*
X101254887Y-54483866D01*
X99492982Y-54864819D02*
X100064410Y-54864819D01*
X99778696Y-54864819D02*
X99778696Y-53864819D01*
X99778696Y-53864819D02*
X99873934Y-54007676D01*
X99873934Y-54007676D02*
X99969172Y-54102914D01*
X99969172Y-54102914D02*
X100064410Y-54150533D01*
X98635839Y-53864819D02*
X98826315Y-53864819D01*
X98826315Y-53864819D02*
X98921553Y-53912438D01*
X98921553Y-53912438D02*
X98969172Y-53960057D01*
X98969172Y-53960057D02*
X99064410Y-54102914D01*
X99064410Y-54102914D02*
X99112029Y-54293390D01*
X99112029Y-54293390D02*
X99112029Y-54674342D01*
X99112029Y-54674342D02*
X99064410Y-54769580D01*
X99064410Y-54769580D02*
X99016791Y-54817200D01*
X99016791Y-54817200D02*
X98921553Y-54864819D01*
X98921553Y-54864819D02*
X98731077Y-54864819D01*
X98731077Y-54864819D02*
X98635839Y-54817200D01*
X98635839Y-54817200D02*
X98588220Y-54769580D01*
X98588220Y-54769580D02*
X98540601Y-54674342D01*
X98540601Y-54674342D02*
X98540601Y-54436247D01*
X98540601Y-54436247D02*
X98588220Y-54341009D01*
X98588220Y-54341009D02*
X98635839Y-54293390D01*
X98635839Y-54293390D02*
X98731077Y-54245771D01*
X98731077Y-54245771D02*
X98921553Y-54245771D01*
X98921553Y-54245771D02*
X99016791Y-54293390D01*
X99016791Y-54293390D02*
X99064410Y-54341009D01*
X99064410Y-54341009D02*
X99112029Y-54436247D01*
X97350124Y-54864819D02*
X97350124Y-53864819D01*
X97350124Y-53864819D02*
X97016791Y-54579104D01*
X97016791Y-54579104D02*
X96683458Y-53864819D01*
X96683458Y-53864819D02*
X96683458Y-54864819D01*
X96207267Y-54864819D02*
X96207267Y-53864819D01*
X96207267Y-54341009D02*
X95635839Y-54341009D01*
X95635839Y-54864819D02*
X95635839Y-53864819D01*
X95254886Y-54198152D02*
X94731077Y-54198152D01*
X94731077Y-54198152D02*
X95254886Y-54864819D01*
X95254886Y-54864819D02*
X94731077Y-54864819D01*
X104397744Y-55998628D02*
X104397744Y-56474819D01*
X104731077Y-55474819D02*
X104397744Y-55998628D01*
X104397744Y-55998628D02*
X104064411Y-55474819D01*
X103778696Y-55570057D02*
X103731077Y-55522438D01*
X103731077Y-55522438D02*
X103635839Y-55474819D01*
X103635839Y-55474819D02*
X103397744Y-55474819D01*
X103397744Y-55474819D02*
X103302506Y-55522438D01*
X103302506Y-55522438D02*
X103254887Y-55570057D01*
X103254887Y-55570057D02*
X103207268Y-55665295D01*
X103207268Y-55665295D02*
X103207268Y-55760533D01*
X103207268Y-55760533D02*
X103254887Y-55903390D01*
X103254887Y-55903390D02*
X103826315Y-56474819D01*
X103826315Y-56474819D02*
X103207268Y-56474819D01*
X102016791Y-56093866D02*
X101254887Y-56093866D01*
X100112029Y-55474819D02*
X99492982Y-55474819D01*
X99492982Y-55474819D02*
X99826315Y-55855771D01*
X99826315Y-55855771D02*
X99683458Y-55855771D01*
X99683458Y-55855771D02*
X99588220Y-55903390D01*
X99588220Y-55903390D02*
X99540601Y-55951009D01*
X99540601Y-55951009D02*
X99492982Y-56046247D01*
X99492982Y-56046247D02*
X99492982Y-56284342D01*
X99492982Y-56284342D02*
X99540601Y-56379580D01*
X99540601Y-56379580D02*
X99588220Y-56427200D01*
X99588220Y-56427200D02*
X99683458Y-56474819D01*
X99683458Y-56474819D02*
X99969172Y-56474819D01*
X99969172Y-56474819D02*
X100064410Y-56427200D01*
X100064410Y-56427200D02*
X100112029Y-56379580D01*
X99112029Y-55570057D02*
X99064410Y-55522438D01*
X99064410Y-55522438D02*
X98969172Y-55474819D01*
X98969172Y-55474819D02*
X98731077Y-55474819D01*
X98731077Y-55474819D02*
X98635839Y-55522438D01*
X98635839Y-55522438D02*
X98588220Y-55570057D01*
X98588220Y-55570057D02*
X98540601Y-55665295D01*
X98540601Y-55665295D02*
X98540601Y-55760533D01*
X98540601Y-55760533D02*
X98588220Y-55903390D01*
X98588220Y-55903390D02*
X99159648Y-56474819D01*
X99159648Y-56474819D02*
X98540601Y-56474819D01*
X98112029Y-56379580D02*
X98064410Y-56427200D01*
X98064410Y-56427200D02*
X98112029Y-56474819D01*
X98112029Y-56474819D02*
X98159648Y-56427200D01*
X98159648Y-56427200D02*
X98112029Y-56379580D01*
X98112029Y-56379580D02*
X98112029Y-56474819D01*
X97731077Y-55474819D02*
X97064411Y-55474819D01*
X97064411Y-55474819D02*
X97492982Y-56474819D01*
X96254887Y-55474819D02*
X96445363Y-55474819D01*
X96445363Y-55474819D02*
X96540601Y-55522438D01*
X96540601Y-55522438D02*
X96588220Y-55570057D01*
X96588220Y-55570057D02*
X96683458Y-55712914D01*
X96683458Y-55712914D02*
X96731077Y-55903390D01*
X96731077Y-55903390D02*
X96731077Y-56284342D01*
X96731077Y-56284342D02*
X96683458Y-56379580D01*
X96683458Y-56379580D02*
X96635839Y-56427200D01*
X96635839Y-56427200D02*
X96540601Y-56474819D01*
X96540601Y-56474819D02*
X96350125Y-56474819D01*
X96350125Y-56474819D02*
X96254887Y-56427200D01*
X96254887Y-56427200D02*
X96207268Y-56379580D01*
X96207268Y-56379580D02*
X96159649Y-56284342D01*
X96159649Y-56284342D02*
X96159649Y-56046247D01*
X96159649Y-56046247D02*
X96207268Y-55951009D01*
X96207268Y-55951009D02*
X96254887Y-55903390D01*
X96254887Y-55903390D02*
X96350125Y-55855771D01*
X96350125Y-55855771D02*
X96540601Y-55855771D01*
X96540601Y-55855771D02*
X96635839Y-55903390D01*
X96635839Y-55903390D02*
X96683458Y-55951009D01*
X96683458Y-55951009D02*
X96731077Y-56046247D01*
X95588220Y-55903390D02*
X95683458Y-55855771D01*
X95683458Y-55855771D02*
X95731077Y-55808152D01*
X95731077Y-55808152D02*
X95778696Y-55712914D01*
X95778696Y-55712914D02*
X95778696Y-55665295D01*
X95778696Y-55665295D02*
X95731077Y-55570057D01*
X95731077Y-55570057D02*
X95683458Y-55522438D01*
X95683458Y-55522438D02*
X95588220Y-55474819D01*
X95588220Y-55474819D02*
X95397744Y-55474819D01*
X95397744Y-55474819D02*
X95302506Y-55522438D01*
X95302506Y-55522438D02*
X95254887Y-55570057D01*
X95254887Y-55570057D02*
X95207268Y-55665295D01*
X95207268Y-55665295D02*
X95207268Y-55712914D01*
X95207268Y-55712914D02*
X95254887Y-55808152D01*
X95254887Y-55808152D02*
X95302506Y-55855771D01*
X95302506Y-55855771D02*
X95397744Y-55903390D01*
X95397744Y-55903390D02*
X95588220Y-55903390D01*
X95588220Y-55903390D02*
X95683458Y-55951009D01*
X95683458Y-55951009D02*
X95731077Y-55998628D01*
X95731077Y-55998628D02*
X95778696Y-56093866D01*
X95778696Y-56093866D02*
X95778696Y-56284342D01*
X95778696Y-56284342D02*
X95731077Y-56379580D01*
X95731077Y-56379580D02*
X95683458Y-56427200D01*
X95683458Y-56427200D02*
X95588220Y-56474819D01*
X95588220Y-56474819D02*
X95397744Y-56474819D01*
X95397744Y-56474819D02*
X95302506Y-56427200D01*
X95302506Y-56427200D02*
X95254887Y-56379580D01*
X95254887Y-56379580D02*
X95207268Y-56284342D01*
X95207268Y-56284342D02*
X95207268Y-56093866D01*
X95207268Y-56093866D02*
X95254887Y-55998628D01*
X95254887Y-55998628D02*
X95302506Y-55951009D01*
X95302506Y-55951009D02*
X95397744Y-55903390D01*
X94778696Y-56474819D02*
X94778696Y-55474819D01*
X94683458Y-56093866D02*
X94397744Y-56474819D01*
X94397744Y-55808152D02*
X94778696Y-56189104D01*
X93969172Y-56474819D02*
X93969172Y-55474819D01*
X93969172Y-55951009D02*
X93397744Y-55951009D01*
X93397744Y-56474819D02*
X93397744Y-55474819D01*
X93016791Y-55808152D02*
X92492982Y-55808152D01*
X92492982Y-55808152D02*
X93016791Y-56474819D01*
X93016791Y-56474819D02*
X92492982Y-56474819D01*
X90500000Y-53000000D02*
X105750000Y-53000000D01*
X105750000Y-57500000D01*
X90500000Y-57500000D01*
X90500000Y-53000000D01*
M02*
