M48
; DRILL file {KiCad 7.0.5-0} date 2023 July 18, Tuesday 00:38:20
; FORMAT={-:-/ absolute / metric / decimal}
; #@! TF.CreationDate,2023-07-18T00:38:20+02:00
; #@! TF.GenerationSoftware,Kicad,Pcbnew,7.0.5-0
; #@! TF.FileFunction,Plated,1,4,PTH
FMAT,2
METRIC
; #@! TA.AperFunction,Plated,PTH,ViaDrill
T1C0.400
; #@! TA.AperFunction,Plated,PTH,ComponentDrill
T2C0.800
; #@! TA.AperFunction,Plated,PTH,ComponentDrill
T3C1.000
; #@! TA.AperFunction,Plated,PTH,ComponentDrill
T4C1.300
; #@! TA.AperFunction,Plated,PTH,ComponentDrill
T5C1.400
%
G90
G05
T1
X41.0Y-50.5
X41.0Y-65.5
X41.0Y-80.5
X41.0Y-95.5
X42.0Y-38.0
X42.0Y-50.5
X42.0Y-53.0
X42.0Y-65.5
X42.0Y-68.0
X42.0Y-80.5
X42.0Y-83.0
X42.0Y-95.5
X42.0Y-98.0
X43.0Y-38.0
X43.0Y-39.0
X43.0Y-40.0
X43.0Y-50.5
X43.0Y-53.0
X43.0Y-54.0
X43.0Y-55.0
X43.0Y-65.5
X43.0Y-68.0
X43.0Y-69.0
X43.0Y-70.0
X43.0Y-80.5
X43.0Y-83.0
X43.0Y-84.0
X43.0Y-85.0
X43.0Y-95.5
X43.0Y-98.0
X43.0Y-99.0
X43.0Y-100.0
X46.0Y-38.0
X46.0Y-39.0
X46.0Y-40.0
X46.0Y-50.5
X46.0Y-51.5
X46.0Y-53.0
X46.0Y-54.0
X46.0Y-55.0
X46.0Y-65.5
X46.0Y-66.5
X46.0Y-68.0
X46.0Y-69.0
X46.0Y-70.0
X46.0Y-80.5
X46.0Y-81.5
X46.0Y-83.0
X46.0Y-84.0
X46.0Y-85.0
X46.0Y-95.5
X46.0Y-96.5
X46.0Y-98.0
X46.0Y-99.0
X46.0Y-100.0
X46.0Y-110.5
X46.0Y-111.5
X46.0Y-112.5
X47.0Y-38.0
X47.0Y-39.0
X47.0Y-40.0
X47.0Y-53.0
X47.0Y-54.0
X47.0Y-55.0
X47.0Y-68.0
X47.0Y-69.0
X47.0Y-70.0
X47.0Y-83.0
X47.0Y-84.0
X47.0Y-85.0
X47.0Y-98.0
X47.0Y-99.0
X47.0Y-100.0
X47.0Y-112.5
X48.0Y-112.5
X49.0Y-52.5
X49.0Y-67.5
X49.0Y-82.5
X49.0Y-97.5
X49.0Y-112.5
X50.0Y-50.5
X50.0Y-51.5
X50.0Y-52.5
X50.0Y-65.5
X50.0Y-66.5
X50.0Y-67.5
X50.0Y-80.5
X50.0Y-81.5
X50.0Y-82.5
X50.0Y-95.5
X50.0Y-96.5
X50.0Y-97.5
X50.0Y-110.5
X50.0Y-111.5
X50.0Y-112.5
X53.75Y-41.5
X53.75Y-43.5
X53.75Y-56.5
X53.75Y-58.5
X53.75Y-71.5
X53.75Y-73.5
X53.75Y-86.5
X53.75Y-88.5
X53.75Y-101.5
X53.75Y-103.5
X55.5Y-38.5
X55.5Y-46.5
X55.5Y-53.5
X55.5Y-61.5
X55.5Y-68.5
X55.5Y-76.5
X55.5Y-83.5
X55.5Y-91.5
X55.5Y-98.5
X55.5Y-106.5
X56.5Y-37.5
X56.5Y-47.5
X56.5Y-52.5
X56.5Y-62.5
X56.5Y-67.5
X56.5Y-77.5
X56.5Y-82.5
X56.5Y-92.5
X56.5Y-97.5
X56.5Y-107.5
X57.0Y-24.5
X57.0Y-26.5
X57.0Y-28.5
X57.0Y-30.5
X57.0Y-32.5
X57.0Y-34.5
X57.5Y-38.5
X57.5Y-46.5
X57.5Y-53.5
X57.5Y-61.5
X57.5Y-68.5
X57.5Y-76.5
X57.5Y-83.5
X57.5Y-91.5
X57.5Y-98.5
X57.5Y-106.5
X58.0Y-25.5
X58.0Y-27.5
X58.0Y-29.5
X58.0Y-31.5
X58.0Y-33.5
X58.0Y-35.5
X58.5Y-37.5
X58.5Y-47.5
X58.5Y-52.5
X58.5Y-62.5
X58.5Y-67.5
X58.5Y-77.5
X58.5Y-82.5
X58.5Y-92.5
X58.5Y-97.5
X58.5Y-107.5
X58.5Y-113.0
X59.0Y-24.5
X59.0Y-26.5
X59.0Y-28.5
X59.0Y-30.5
X59.0Y-32.5
X59.0Y-34.5
X59.5Y-38.5
X59.5Y-46.5
X59.5Y-53.5
X59.5Y-61.5
X59.5Y-68.5
X59.5Y-76.5
X59.5Y-83.5
X59.5Y-91.5
X59.5Y-98.5
X59.5Y-106.5
X60.0Y-25.5
X60.0Y-27.5
X60.0Y-29.5
X60.0Y-31.5
X60.0Y-33.5
X60.0Y-35.5
X60.5Y-37.5
X60.5Y-47.5
X60.5Y-52.5
X60.5Y-62.5
X60.5Y-67.5
X60.5Y-77.5
X60.5Y-82.5
X60.5Y-92.5
X60.5Y-97.5
X60.5Y-107.5
X61.0Y-24.5
X61.0Y-26.5
X61.0Y-28.5
X61.0Y-30.5
X61.0Y-32.5
X61.0Y-34.5
X61.5Y-38.5
X61.5Y-46.5
X61.5Y-53.5
X61.5Y-61.5
X61.5Y-68.5
X61.5Y-76.5
X61.5Y-83.5
X61.5Y-91.5
X61.5Y-98.5
X61.5Y-106.5
X62.0Y-110.0
X62.5Y-37.5
X62.5Y-39.5
X62.5Y-45.5
X62.5Y-47.5
X62.5Y-52.5
X62.5Y-54.5
X62.5Y-60.5
X62.5Y-62.5
X62.5Y-67.5
X62.5Y-69.5
X62.5Y-75.5
X62.5Y-77.5
X62.5Y-82.5
X62.5Y-84.5
X62.5Y-90.5
X62.5Y-92.5
X62.5Y-97.5
X62.5Y-99.5
X62.5Y-105.5
X62.5Y-107.5
X63.5Y-38.5
X63.5Y-40.5
X63.5Y-42.5
X63.5Y-44.5
X63.5Y-46.5
X63.5Y-53.5
X63.5Y-55.5
X63.5Y-57.5
X63.5Y-59.5
X63.5Y-61.5
X63.5Y-68.5
X63.5Y-70.5
X63.5Y-72.5
X63.5Y-74.5
X63.5Y-76.5
X63.5Y-83.5
X63.5Y-85.5
X63.5Y-87.5
X63.5Y-89.5
X63.5Y-91.5
X63.5Y-98.5
X63.5Y-100.5
X63.5Y-102.5
X63.5Y-104.5
X63.5Y-106.5
X66.0Y-118.0
X67.0Y-42.2
X67.0Y-43.5
X67.0Y-57.2
X67.0Y-58.5
X67.0Y-72.2
X67.0Y-73.5
X67.0Y-87.2
X67.0Y-88.5
X67.0Y-102.2
X67.0Y-103.5
X67.25Y-47.75
X67.25Y-62.75
X67.25Y-77.75
X67.25Y-92.75
X67.25Y-107.75
X67.5Y-113.5
X69.25Y-119.0
X69.5Y-49.25
X69.5Y-64.25
X69.5Y-79.25
X69.5Y-94.25
X69.5Y-109.25
X69.75Y-113.75
X71.5Y-35.5
X71.75Y-42.5
X71.75Y-57.5
X71.75Y-72.5
X71.75Y-87.5
X71.75Y-102.5
X75.5Y-109.0
X78.4Y-84.0
X79.75Y-107.0
X80.6Y-41.0
X80.6Y-56.2
X80.6Y-68.6
X81.4Y-81.6
X81.4Y-84.2
X81.4Y-93.4
X81.5Y-24.5
X81.5Y-26.5
X81.5Y-28.5
X81.5Y-30.5
X81.5Y-32.5
X81.5Y-34.5
X81.8Y-64.2
X82.5Y-25.5
X82.5Y-27.5
X82.5Y-29.5
X82.5Y-31.5
X82.5Y-33.5
X82.5Y-35.5
X82.6Y-101.8
X82.75Y-38.5
X83.2Y-55.8
X83.5Y-24.5
X83.5Y-26.5
X83.5Y-28.5
X83.5Y-30.5
X83.5Y-32.5
X83.5Y-34.5
X83.75Y-41.25
X83.75Y-45.0
X84.4Y-50.6
X84.5Y-25.5
X84.5Y-27.5
X84.5Y-29.5
X84.5Y-31.5
X84.5Y-33.5
X84.5Y-35.5
X84.75Y-41.25
X84.75Y-45.0
X85.0Y-88.5
X85.0Y-91.5
X85.0Y-94.5
X85.0Y-97.5
X85.5Y-24.5
X85.5Y-26.5
X85.5Y-28.5
X85.5Y-30.5
X85.5Y-32.5
X85.5Y-34.5
X85.75Y-41.25
X85.75Y-45.0
X85.75Y-99.5
X85.75Y-101.5
X86.25Y-103.75
X86.5Y-86.75
X86.5Y-87.75
X86.5Y-90.0
X86.5Y-93.0
X86.5Y-96.0
X86.6Y-75.4
X86.8Y-76.8
X87.75Y-89.0
X88.0Y-75.0
X88.8Y-80.2
X89.0Y-65.0
X89.25Y-38.5
X89.25Y-89.5
X89.75Y-75.75
X90.0Y-97.0
X90.6Y-82.2
X91.0Y-44.25
X91.0Y-75.75
X91.0Y-99.0
X91.5Y-65.0
X91.5Y-66.75
X91.512Y-85.762
X91.75Y-87.0
X92.0Y-41.5
X92.0Y-69.75
X92.0Y-76.75
X93.75Y-69.75
X94.25Y-75.25
X94.75Y-81.5
X94.75Y-83.724
X95.0Y-90.75
X95.25Y-68.0
X95.25Y-86.0
X96.0Y-90.75
X96.2Y-37.0
X96.2Y-37.8
X96.2Y-38.6
X96.2Y-39.4
X96.2Y-40.2
X97.25Y-79.75
X97.4Y-37.0
X97.4Y-40.2
X97.5Y-88.5
X97.75Y-60.75
X98.25Y-79.75
X98.5Y-89.75
X98.6Y-37.0
X98.6Y-37.8
X98.6Y-38.6
X98.6Y-39.4
X98.6Y-40.2
X98.8Y-43.4
X98.8Y-44.2
X98.8Y-45.0
X99.5Y-87.75
X99.8Y-46.8
X100.961Y-46.834
X101.0Y-43.4
X101.0Y-44.2
X101.0Y-50.6
X101.8Y-44.8
X102.0Y-64.75
X102.0Y-68.25
X102.0Y-71.75
X102.0Y-75.25
X102.0Y-78.75
X102.2Y-50.2
X102.25Y-86.5
X102.25Y-92.0
X102.25Y-97.5
X102.25Y-108.5
X102.75Y-103.0
X103.0Y-43.2
X103.0Y-44.0
X103.0Y-45.6
X103.0Y-46.4
X103.4Y-44.8
X103.4Y-47.8
X103.4Y-49.0
X104.2Y-44.8
X104.25Y-86.5
X104.25Y-92.0
X104.25Y-97.5
X104.25Y-103.0
X104.25Y-108.5
X104.6Y-43.2
X104.6Y-45.6
X104.6Y-46.4
X105.75Y-86.5
X105.75Y-92.0
X105.75Y-97.5
X105.75Y-103.0
X105.75Y-108.5
X106.25Y-66.0
X106.25Y-69.5
X106.25Y-73.0
X106.25Y-76.5
X106.25Y-80.0
X113.5Y-44.25
T2
X87.75Y-68.5
X87.75Y-71.04
X93.25Y-90.75
X93.25Y-93.29
T3
X70.18Y-110.75
X72.72Y-110.75
X75.26Y-110.75
X77.8Y-110.75
T4
X83.0Y-116.5
X88.0Y-116.5
X93.0Y-116.5
X98.0Y-116.5
X119.0Y-50.0
X119.0Y-55.0
X119.0Y-60.0
X119.0Y-65.0
X119.0Y-70.0
X119.0Y-75.0
X119.0Y-80.0
X119.0Y-85.0
X119.0Y-90.0
X119.0Y-95.0
X119.0Y-100.0
X119.0Y-105.0
T5
G00X27.8Y-37.75
M15
G01X29.2Y-37.75
M16
G05
G00X27.8Y-47.25
M15
G01X29.2Y-47.25
M16
G05
G00X27.8Y-52.75
M15
G01X29.2Y-52.75
M16
G05
G00X27.8Y-62.25
M15
G01X29.2Y-62.25
M16
G05
G00X27.8Y-67.75
M15
G01X29.2Y-67.75
M16
G05
G00X27.8Y-77.25
M15
G01X29.2Y-77.25
M16
G05
G00X27.8Y-82.75
M15
G01X29.2Y-82.75
M16
G05
G00X27.8Y-92.25
M15
G01X29.2Y-92.25
M16
G05
G00X27.8Y-97.75
M15
G01X29.2Y-97.75
M16
G05
G00X27.8Y-107.25
M15
G01X29.2Y-107.25
M16
G05
G00X31.8Y-37.75
M15
G01X33.2Y-37.75
M16
G05
G00X31.8Y-47.25
M15
G01X33.2Y-47.25
M16
G05
G00X31.8Y-52.75
M15
G01X33.2Y-52.75
M16
G05
G00X31.8Y-62.25
M15
G01X33.2Y-62.25
M16
G05
G00X31.8Y-67.75
M15
G01X33.2Y-67.75
M16
G05
G00X31.8Y-77.25
M15
G01X33.2Y-77.25
M16
G05
G00X31.8Y-82.75
M15
G01X33.2Y-82.75
M16
G05
G00X31.8Y-92.25
M15
G01X33.2Y-92.25
M16
G05
G00X31.8Y-97.75
M15
G01X33.2Y-97.75
M16
G05
G00X31.8Y-107.25
M15
G01X33.2Y-107.25
M16
G05
G00X35.8Y-37.75
M15
G01X37.2Y-37.75
M16
G05
G00X35.8Y-47.25
M15
G01X37.2Y-47.25
M16
G05
G00X35.8Y-52.75
M15
G01X37.2Y-52.75
M16
G05
G00X35.8Y-62.25
M15
G01X37.2Y-62.25
M16
G05
G00X35.8Y-67.75
M15
G01X37.2Y-67.75
M16
G05
G00X35.8Y-77.25
M15
G01X37.2Y-77.25
M16
G05
G00X35.8Y-82.75
M15
G01X37.2Y-82.75
M16
G05
G00X35.8Y-92.25
M15
G01X37.2Y-92.25
M16
G05
G00X35.8Y-97.75
M15
G01X37.2Y-97.75
M16
G05
G00X35.8Y-107.25
M15
G01X37.2Y-107.25
M16
G05
G00X54.25Y-25.3
M15
G01X54.25Y-26.7
M16
G05
G00X54.25Y-29.3
M15
G01X54.25Y-30.7
M16
G05
G00X54.25Y-33.3
M15
G01X54.25Y-34.7
M16
G05
G00X63.75Y-25.3
M15
G01X63.75Y-26.7
M16
G05
G00X63.75Y-29.3
M15
G01X63.75Y-30.7
M16
G05
G00X63.75Y-33.3
M15
G01X63.75Y-34.7
M16
G05
G00X78.75Y-25.3
M15
G01X78.75Y-26.7
M16
G05
G00X78.75Y-29.3
M15
G01X78.75Y-30.7
M16
G05
G00X78.75Y-33.3
M15
G01X78.75Y-34.7
M16
G05
G00X88.25Y-25.3
M15
G01X88.25Y-26.7
M16
G05
G00X88.25Y-29.3
M15
G01X88.25Y-30.7
M16
G05
G00X88.25Y-33.3
M15
G01X88.25Y-34.7
M16
G05
T0
M30
