%TF.GenerationSoftware,KiCad,Pcbnew,7.0.5-0*%
%TF.CreationDate,2023-07-18T00:38:14+02:00*%
%TF.ProjectId,buslight,6275736c-6967-4687-942e-6b696361645f,rev?*%
%TF.SameCoordinates,Original*%
%TF.FileFunction,Paste,Top*%
%TF.FilePolarity,Positive*%
%FSLAX46Y46*%
G04 Gerber Fmt 4.6, Leading zero omitted, Abs format (unit mm)*
G04 Created by KiCad (PCBNEW 7.0.5-0) date 2023-07-18 00:38:14*
%MOMM*%
%LPD*%
G01*
G04 APERTURE LIST*
G04 Aperture macros list*
%AMRoundRect*
0 Rectangle with rounded corners*
0 $1 Rounding radius*
0 $2 $3 $4 $5 $6 $7 $8 $9 X,Y pos of 4 corners*
0 Add a 4 corners polygon primitive as box body*
4,1,4,$2,$3,$4,$5,$6,$7,$8,$9,$2,$3,0*
0 Add four circle primitives for the rounded corners*
1,1,$1+$1,$2,$3*
1,1,$1+$1,$4,$5*
1,1,$1+$1,$6,$7*
1,1,$1+$1,$8,$9*
0 Add four rect primitives between the rounded corners*
20,1,$1+$1,$2,$3,$4,$5,0*
20,1,$1+$1,$4,$5,$6,$7,0*
20,1,$1+$1,$6,$7,$8,$9,0*
20,1,$1+$1,$8,$9,$2,$3,0*%
G04 Aperture macros list end*
%ADD10RoundRect,0.200000X0.275000X-0.200000X0.275000X0.200000X-0.275000X0.200000X-0.275000X-0.200000X0*%
%ADD11RoundRect,0.250000X0.600000X-0.400000X0.600000X0.400000X-0.600000X0.400000X-0.600000X-0.400000X0*%
%ADD12R,1.500000X2.200000*%
%ADD13R,1.900000X0.800000*%
%ADD14RoundRect,0.250000X-0.450000X0.350000X-0.450000X-0.350000X0.450000X-0.350000X0.450000X0.350000X0*%
%ADD15RoundRect,0.250000X-0.325000X-0.450000X0.325000X-0.450000X0.325000X0.450000X-0.325000X0.450000X0*%
%ADD16RoundRect,0.250000X-0.600000X0.400000X-0.600000X-0.400000X0.600000X-0.400000X0.600000X0.400000X0*%
%ADD17RoundRect,0.250000X0.550000X-1.500000X0.550000X1.500000X-0.550000X1.500000X-0.550000X-1.500000X0*%
%ADD18RoundRect,0.075000X-0.075000X0.662500X-0.075000X-0.662500X0.075000X-0.662500X0.075000X0.662500X0*%
%ADD19RoundRect,0.075000X-0.662500X0.075000X-0.662500X-0.075000X0.662500X-0.075000X0.662500X0.075000X0*%
%ADD20RoundRect,0.250000X-1.500000X-0.550000X1.500000X-0.550000X1.500000X0.550000X-1.500000X0.550000X0*%
%ADD21RoundRect,0.135000X-0.135000X-0.185000X0.135000X-0.185000X0.135000X0.185000X-0.135000X0.185000X0*%
%ADD22RoundRect,0.135000X-0.035355X0.226274X-0.226274X0.035355X0.035355X-0.226274X0.226274X-0.035355X0*%
%ADD23RoundRect,0.225000X0.250000X-0.225000X0.250000X0.225000X-0.250000X0.225000X-0.250000X-0.225000X0*%
%ADD24R,1.200000X1.400000*%
%ADD25RoundRect,0.140000X-0.140000X-0.170000X0.140000X-0.170000X0.140000X0.170000X-0.140000X0.170000X0*%
%ADD26RoundRect,0.237500X-0.237500X0.250000X-0.237500X-0.250000X0.237500X-0.250000X0.237500X0.250000X0*%
%ADD27RoundRect,0.140000X0.140000X0.170000X-0.140000X0.170000X-0.140000X-0.170000X0.140000X-0.170000X0*%
%ADD28R,0.800000X1.900000*%
%ADD29RoundRect,0.150000X-0.150000X0.512500X-0.150000X-0.512500X0.150000X-0.512500X0.150000X0.512500X0*%
%ADD30RoundRect,0.250000X-0.900000X1.000000X-0.900000X-1.000000X0.900000X-1.000000X0.900000X1.000000X0*%
%ADD31RoundRect,0.200000X-0.275000X0.200000X-0.275000X-0.200000X0.275000X-0.200000X0.275000X0.200000X0*%
%ADD32RoundRect,0.112500X0.112500X-0.187500X0.112500X0.187500X-0.112500X0.187500X-0.112500X-0.187500X0*%
%ADD33RoundRect,0.250000X0.475000X-0.250000X0.475000X0.250000X-0.475000X0.250000X-0.475000X-0.250000X0*%
%ADD34RoundRect,0.218750X0.381250X-0.218750X0.381250X0.218750X-0.381250X0.218750X-0.381250X-0.218750X0*%
%ADD35RoundRect,0.237500X-0.250000X-0.237500X0.250000X-0.237500X0.250000X0.237500X-0.250000X0.237500X0*%
%ADD36RoundRect,0.250000X-0.325000X-0.650000X0.325000X-0.650000X0.325000X0.650000X-0.325000X0.650000X0*%
%ADD37RoundRect,0.200000X-0.900000X-0.200000X0.900000X-0.200000X0.900000X0.200000X-0.900000X0.200000X0*%
%ADD38RoundRect,0.250000X-1.275000X-1.125000X1.275000X-1.125000X1.275000X1.125000X-1.275000X1.125000X0*%
%ADD39RoundRect,0.250000X0.250000X0.475000X-0.250000X0.475000X-0.250000X-0.475000X0.250000X-0.475000X0*%
%ADD40RoundRect,0.140000X0.170000X-0.140000X0.170000X0.140000X-0.170000X0.140000X-0.170000X-0.140000X0*%
%ADD41RoundRect,0.225000X-0.250000X0.225000X-0.250000X-0.225000X0.250000X-0.225000X0.250000X0.225000X0*%
%ADD42R,0.750000X1.000000*%
%ADD43RoundRect,0.237500X0.250000X0.237500X-0.250000X0.237500X-0.250000X-0.237500X0.250000X-0.237500X0*%
%ADD44RoundRect,0.218750X0.218750X0.256250X-0.218750X0.256250X-0.218750X-0.256250X0.218750X-0.256250X0*%
%ADD45RoundRect,0.135000X-0.185000X0.135000X-0.185000X-0.135000X0.185000X-0.135000X0.185000X0.135000X0*%
%ADD46RoundRect,0.218750X0.256250X-0.218750X0.256250X0.218750X-0.256250X0.218750X-0.256250X-0.218750X0*%
%ADD47RoundRect,0.150000X-0.825000X-0.150000X0.825000X-0.150000X0.825000X0.150000X-0.825000X0.150000X0*%
%ADD48RoundRect,0.218750X-0.381250X0.218750X-0.381250X-0.218750X0.381250X-0.218750X0.381250X0.218750X0*%
%ADD49R,1.000000X1.800000*%
G04 APERTURE END LIST*
D10*
%TO.C,R28*%
X105750000Y-105575000D03*
X105750000Y-103925000D03*
%TD*%
D11*
%TO.C,D24*%
X102250000Y-110750000D03*
X102250000Y-107250000D03*
%TD*%
D12*
%TO.C,L1*%
X97400000Y-38600000D03*
X103800000Y-38600000D03*
%TD*%
D13*
%TO.C,Q3*%
X102000000Y-70550000D03*
X102000000Y-72450000D03*
X105000000Y-71500000D03*
%TD*%
D14*
%TO.C,R141*%
X67250000Y-89500000D03*
X67250000Y-91500000D03*
%TD*%
D15*
%TO.C,D121*%
X76975000Y-57500000D03*
X79025000Y-57500000D03*
%TD*%
D10*
%TO.C,R26*%
X105750000Y-94575000D03*
X105750000Y-92925000D03*
%TD*%
D16*
%TO.C,D122*%
X69500000Y-59500000D03*
X69500000Y-63000000D03*
%TD*%
D17*
%TO.C,C150*%
X44500000Y-103200000D03*
X44500000Y-97800000D03*
%TD*%
D13*
%TO.C,Q2*%
X102000000Y-67050000D03*
X102000000Y-68950000D03*
X105000000Y-68000000D03*
%TD*%
D18*
%TO.C,U2*%
X95750000Y-80087500D03*
X95250000Y-80087500D03*
X94750000Y-80087500D03*
X94250000Y-80087500D03*
X93750000Y-80087500D03*
X93250000Y-80087500D03*
X92750000Y-80087500D03*
X92250000Y-80087500D03*
X91750000Y-80087500D03*
X91250000Y-80087500D03*
X90750000Y-80087500D03*
X90250000Y-80087500D03*
D19*
X88837500Y-81500000D03*
X88837500Y-82000000D03*
X88837500Y-82500000D03*
X88837500Y-83000000D03*
X88837500Y-83500000D03*
X88837500Y-84000000D03*
X88837500Y-84500000D03*
X88837500Y-85000000D03*
X88837500Y-85500000D03*
X88837500Y-86000000D03*
X88837500Y-86500000D03*
X88837500Y-87000000D03*
D18*
X90250000Y-88412500D03*
X90750000Y-88412500D03*
X91250000Y-88412500D03*
X91750000Y-88412500D03*
X92250000Y-88412500D03*
X92750000Y-88412500D03*
X93250000Y-88412500D03*
X93750000Y-88412500D03*
X94250000Y-88412500D03*
X94750000Y-88412500D03*
X95250000Y-88412500D03*
X95750000Y-88412500D03*
D19*
X97162500Y-87000000D03*
X97162500Y-86500000D03*
X97162500Y-86000000D03*
X97162500Y-85500000D03*
X97162500Y-85000000D03*
X97162500Y-84500000D03*
X97162500Y-84000000D03*
X97162500Y-83500000D03*
X97162500Y-83000000D03*
X97162500Y-82500000D03*
X97162500Y-82000000D03*
X97162500Y-81500000D03*
%TD*%
D11*
%TO.C,D20*%
X102250000Y-88750000D03*
X102250000Y-85250000D03*
%TD*%
D20*
%TO.C,C1*%
X68550000Y-26500000D03*
X73950000Y-26500000D03*
%TD*%
D21*
%TO.C,R3*%
X111730000Y-44250000D03*
X112750000Y-44250000D03*
%TD*%
D10*
%TO.C,R31*%
X107250000Y-94575000D03*
X107250000Y-92925000D03*
%TD*%
D22*
%TO.C,R10*%
X94860624Y-76639376D03*
X94139376Y-77360624D03*
%TD*%
D23*
%TO.C,C28*%
X104250000Y-105525000D03*
X104250000Y-103975000D03*
%TD*%
D20*
%TO.C,C2*%
X68550000Y-33750000D03*
X73950000Y-33750000D03*
%TD*%
D15*
%TO.C,D151*%
X76975000Y-102500000D03*
X79025000Y-102500000D03*
%TD*%
D24*
%TO.C,Y1*%
X95100000Y-73600000D03*
X95100000Y-71400000D03*
X93400000Y-71400000D03*
X93400000Y-73600000D03*
%TD*%
D25*
%TO.C,C19*%
X87270000Y-65000000D03*
X88230000Y-65000000D03*
%TD*%
D26*
%TO.C,R22*%
X100000000Y-70587500D03*
X100000000Y-72412500D03*
%TD*%
D27*
%TO.C,C17*%
X96730000Y-68000000D03*
X95770000Y-68000000D03*
%TD*%
D28*
%TO.C,Q120*%
X68950000Y-54250000D03*
X67050000Y-54250000D03*
X68000000Y-57250000D03*
%TD*%
D10*
%TO.C,R27*%
X105750000Y-100075000D03*
X105750000Y-98425000D03*
%TD*%
D29*
%TO.C,U5*%
X99750000Y-45862500D03*
X98800000Y-45862500D03*
X97850000Y-45862500D03*
X97850000Y-48137500D03*
X98800000Y-48137500D03*
X99750000Y-48137500D03*
%TD*%
D30*
%TO.C,D130*%
X48000000Y-75850000D03*
X48000000Y-80150000D03*
%TD*%
%TO.C,D110*%
X48000000Y-45850000D03*
X48000000Y-50150000D03*
%TD*%
D17*
%TO.C,C140*%
X44500000Y-88200000D03*
X44500000Y-82800000D03*
%TD*%
D15*
%TO.C,D141*%
X76975000Y-87500000D03*
X79025000Y-87500000D03*
%TD*%
D31*
%TO.C,R12*%
X95500000Y-99675000D03*
X95500000Y-101325000D03*
%TD*%
D32*
%TO.C,D2*%
X94500000Y-44050000D03*
X94500000Y-41950000D03*
%TD*%
D33*
%TO.C,C3*%
X93500000Y-36400000D03*
X93500000Y-34500000D03*
%TD*%
D17*
%TO.C,C110*%
X44500000Y-43200000D03*
X44500000Y-37800000D03*
%TD*%
D26*
%TO.C,R20*%
X100000000Y-63587500D03*
X100000000Y-65412500D03*
%TD*%
D34*
%TO.C,FB1*%
X91500000Y-40062500D03*
X91500000Y-37937500D03*
%TD*%
D23*
%TO.C,C23*%
X107000000Y-76525000D03*
X107000000Y-74975000D03*
%TD*%
D10*
%TO.C,R25*%
X105750000Y-89075000D03*
X105750000Y-87425000D03*
%TD*%
D23*
%TO.C,C27*%
X104250000Y-100025000D03*
X104250000Y-98475000D03*
%TD*%
D26*
%TO.C,R23*%
X100000000Y-74087500D03*
X100000000Y-75912500D03*
%TD*%
D35*
%TO.C,R152*%
X70750000Y-99000000D03*
X72575000Y-99000000D03*
%TD*%
D21*
%TO.C,R13*%
X86740000Y-73000000D03*
X87760000Y-73000000D03*
%TD*%
D36*
%TO.C,C6*%
X97325000Y-43800000D03*
X100275000Y-43800000D03*
%TD*%
D37*
%TO.C,U110*%
X52300000Y-40220000D03*
X52300000Y-41360000D03*
D38*
X56925000Y-40975000D03*
X56925000Y-44025000D03*
X60275000Y-40975000D03*
X60275000Y-44025000D03*
D37*
X52300000Y-43640000D03*
X52300000Y-44780000D03*
%TD*%
D23*
%TO.C,C21*%
X107000000Y-69525000D03*
X107000000Y-67975000D03*
%TD*%
D28*
%TO.C,Q110*%
X68950000Y-39250000D03*
X67050000Y-39250000D03*
X68000000Y-42250000D03*
%TD*%
D27*
%TO.C,C11*%
X95980000Y-90000000D03*
X95020000Y-90000000D03*
%TD*%
D14*
%TO.C,R151*%
X67250000Y-104500000D03*
X67250000Y-106500000D03*
%TD*%
D37*
%TO.C,U120*%
X52300000Y-55220000D03*
X52300000Y-56360000D03*
D38*
X56925000Y-55975000D03*
X56925000Y-59025000D03*
X60275000Y-55975000D03*
X60275000Y-59025000D03*
D37*
X52300000Y-58640000D03*
X52300000Y-59780000D03*
%TD*%
D30*
%TO.C,D120*%
X48000000Y-60850000D03*
X48000000Y-65150000D03*
%TD*%
D23*
%TO.C,C26*%
X104250000Y-94525000D03*
X104250000Y-92975000D03*
%TD*%
D39*
%TO.C,C9*%
X103750000Y-45800000D03*
X101850000Y-45800000D03*
%TD*%
D35*
%TO.C,R120*%
X73337500Y-57500000D03*
X75162500Y-57500000D03*
%TD*%
D40*
%TO.C,C12*%
X87250000Y-87730000D03*
X87250000Y-86770000D03*
%TD*%
D13*
%TO.C,Q5*%
X102000000Y-77550000D03*
X102000000Y-79450000D03*
X105000000Y-78500000D03*
%TD*%
D41*
%TO.C,C7*%
X86500000Y-99725000D03*
X86500000Y-101275000D03*
%TD*%
D27*
%TO.C,C15*%
X95730000Y-75250000D03*
X94770000Y-75250000D03*
%TD*%
D14*
%TO.C,R121*%
X67250000Y-59500000D03*
X67250000Y-61500000D03*
%TD*%
D25*
%TO.C,C14*%
X87920000Y-75750000D03*
X88880000Y-75750000D03*
%TD*%
%TO.C,C18*%
X93770000Y-68000000D03*
X94730000Y-68000000D03*
%TD*%
D15*
%TO.C,D111*%
X76975000Y-42500000D03*
X79025000Y-42500000D03*
%TD*%
D42*
%TO.C,SW2*%
X91125000Y-57500000D03*
X91125000Y-63500000D03*
X87375000Y-57500000D03*
X87375000Y-63500000D03*
%TD*%
D35*
%TO.C,R142*%
X70750000Y-84000000D03*
X72575000Y-84000000D03*
%TD*%
%TO.C,R150*%
X73337500Y-102500000D03*
X75162500Y-102500000D03*
%TD*%
D10*
%TO.C,R32*%
X107250000Y-100075000D03*
X107250000Y-98425000D03*
%TD*%
D43*
%TO.C,R24*%
X103412500Y-81000000D03*
X101587500Y-81000000D03*
%TD*%
D37*
%TO.C,U150*%
X52300000Y-100220000D03*
X52300000Y-101360000D03*
D38*
X56925000Y-100975000D03*
X56925000Y-104025000D03*
X60275000Y-100975000D03*
X60275000Y-104025000D03*
D37*
X52300000Y-103640000D03*
X52300000Y-104780000D03*
%TD*%
D16*
%TO.C,D132*%
X69500000Y-74500000D03*
X69500000Y-78000000D03*
%TD*%
D23*
%TO.C,C25*%
X104250000Y-89025000D03*
X104250000Y-87475000D03*
%TD*%
D44*
%TO.C,D9*%
X110537500Y-44250000D03*
X108962500Y-44250000D03*
%TD*%
D10*
%TO.C,R34*%
X107250000Y-111075000D03*
X107250000Y-109425000D03*
%TD*%
D11*
%TO.C,D22*%
X102250000Y-99750000D03*
X102250000Y-96250000D03*
%TD*%
%TO.C,D21*%
X102250000Y-94250000D03*
X102250000Y-90750000D03*
%TD*%
D10*
%TO.C,R33*%
X107250000Y-105575000D03*
X107250000Y-103925000D03*
%TD*%
D30*
%TO.C,D1*%
X84750000Y-43150000D03*
X84750000Y-38850000D03*
%TD*%
D45*
%TO.C,R11*%
X96750000Y-68990000D03*
X96750000Y-70010000D03*
%TD*%
D35*
%TO.C,R130*%
X73337500Y-72500000D03*
X75162500Y-72500000D03*
%TD*%
D23*
%TO.C,C24*%
X107000000Y-80025000D03*
X107000000Y-78475000D03*
%TD*%
D41*
%TO.C,C5*%
X98300000Y-49825000D03*
X98300000Y-51375000D03*
%TD*%
D10*
%TO.C,R30*%
X107250000Y-89075000D03*
X107250000Y-87425000D03*
%TD*%
D26*
%TO.C,R21*%
X100000000Y-67087500D03*
X100000000Y-68912500D03*
%TD*%
D35*
%TO.C,R112*%
X70587500Y-39000000D03*
X72412500Y-39000000D03*
%TD*%
D28*
%TO.C,Q140*%
X68950000Y-84250000D03*
X67050000Y-84250000D03*
X68000000Y-87250000D03*
%TD*%
D16*
%TO.C,D142*%
X69500000Y-89500000D03*
X69500000Y-93000000D03*
%TD*%
D37*
%TO.C,U130*%
X52300000Y-70220000D03*
X52300000Y-71360000D03*
D38*
X56925000Y-70975000D03*
X56925000Y-74025000D03*
X60275000Y-70975000D03*
X60275000Y-74025000D03*
D37*
X52300000Y-73640000D03*
X52300000Y-74780000D03*
%TD*%
D25*
%TO.C,C13*%
X91120000Y-77600000D03*
X92080000Y-77600000D03*
%TD*%
D23*
%TO.C,C22*%
X107000000Y-73025000D03*
X107000000Y-71475000D03*
%TD*%
D35*
%TO.C,R110*%
X73337500Y-42500000D03*
X75162500Y-42500000D03*
%TD*%
D28*
%TO.C,Q150*%
X68950000Y-99250000D03*
X67050000Y-99250000D03*
X68000000Y-102250000D03*
%TD*%
D35*
%TO.C,R132*%
X70587500Y-69000000D03*
X72412500Y-69000000D03*
%TD*%
D17*
%TO.C,C130*%
X44500000Y-73200000D03*
X44500000Y-67800000D03*
%TD*%
D37*
%TO.C,U140*%
X52300000Y-85220000D03*
X52300000Y-86360000D03*
D38*
X56925000Y-85975000D03*
X56925000Y-89025000D03*
X60275000Y-85975000D03*
X60275000Y-89025000D03*
D37*
X52300000Y-88640000D03*
X52300000Y-89780000D03*
%TD*%
D39*
%TO.C,C8*%
X103750000Y-43800000D03*
X101850000Y-43800000D03*
%TD*%
D46*
%TO.C,D3*%
X97750000Y-63287500D03*
X97750000Y-61712500D03*
%TD*%
D15*
%TO.C,D131*%
X76975000Y-72500000D03*
X79025000Y-72500000D03*
%TD*%
D47*
%TO.C,U1*%
X88525000Y-98595000D03*
X88525000Y-99865000D03*
X88525000Y-101135000D03*
X88525000Y-102405000D03*
X93475000Y-102405000D03*
X93475000Y-101135000D03*
X93475000Y-99865000D03*
X93475000Y-98595000D03*
%TD*%
D35*
%TO.C,R122*%
X70500000Y-54000000D03*
X72325000Y-54000000D03*
%TD*%
%TO.C,R140*%
X73337500Y-87500000D03*
X75162500Y-87500000D03*
%TD*%
D30*
%TO.C,D140*%
X48000000Y-90850000D03*
X48000000Y-95150000D03*
%TD*%
D31*
%TO.C,R2*%
X96800000Y-49775000D03*
X96800000Y-51425000D03*
%TD*%
D23*
%TO.C,C29*%
X104250000Y-111025000D03*
X104250000Y-109475000D03*
%TD*%
D25*
%TO.C,C16*%
X92770000Y-75250000D03*
X93730000Y-75250000D03*
%TD*%
D11*
%TO.C,D23*%
X102250000Y-105250000D03*
X102250000Y-101750000D03*
%TD*%
D48*
%TO.C,FB2*%
X93500000Y-37937500D03*
X93500000Y-40062500D03*
%TD*%
D28*
%TO.C,Q130*%
X68950000Y-69250000D03*
X67050000Y-69250000D03*
X68000000Y-72250000D03*
%TD*%
D16*
%TO.C,D112*%
X69500000Y-44500000D03*
X69500000Y-48000000D03*
%TD*%
D23*
%TO.C,C4*%
X101300000Y-49075000D03*
X101300000Y-47525000D03*
%TD*%
D25*
%TO.C,C10*%
X97270000Y-80500000D03*
X98230000Y-80500000D03*
%TD*%
D10*
%TO.C,R1*%
X99800000Y-51425000D03*
X99800000Y-49775000D03*
%TD*%
D44*
%TO.C,FB3*%
X89787500Y-77000000D03*
X88212500Y-77000000D03*
%TD*%
D49*
%TO.C,Y2*%
X96500000Y-66250000D03*
X94000000Y-66250000D03*
%TD*%
D41*
%TO.C,C20*%
X107000000Y-64475000D03*
X107000000Y-66025000D03*
%TD*%
D17*
%TO.C,C120*%
X44500000Y-58200000D03*
X44500000Y-52800000D03*
%TD*%
D14*
%TO.C,R131*%
X67250000Y-74500000D03*
X67250000Y-76500000D03*
%TD*%
D16*
%TO.C,D152*%
X69500000Y-104500000D03*
X69500000Y-108000000D03*
%TD*%
D10*
%TO.C,R29*%
X105750000Y-111075000D03*
X105750000Y-109425000D03*
%TD*%
D30*
%TO.C,D150*%
X48000000Y-105850000D03*
X48000000Y-110150000D03*
%TD*%
D14*
%TO.C,R111*%
X67250000Y-44500000D03*
X67250000Y-46500000D03*
%TD*%
D13*
%TO.C,Q4*%
X102000000Y-74050000D03*
X102000000Y-75950000D03*
X105000000Y-75000000D03*
%TD*%
D45*
%TO.C,R6*%
X97750000Y-65490000D03*
X97750000Y-66510000D03*
%TD*%
D13*
%TO.C,Q1*%
X102000000Y-63550000D03*
X102000000Y-65450000D03*
X105000000Y-64500000D03*
%TD*%
M02*
