%TF.GenerationSoftware,KiCad,Pcbnew,7.0.5-0*%
%TF.CreationDate,2023-07-18T22:02:12+02:00*%
%TF.ProjectId,buslight,6275736c-6967-4687-942e-6b696361645f,rev?*%
%TF.SameCoordinates,Original*%
%TF.FileFunction,Legend,Bot*%
%TF.FilePolarity,Positive*%
%FSLAX46Y46*%
G04 Gerber Fmt 4.6, Leading zero omitted, Abs format (unit mm)*
G04 Created by KiCad (PCBNEW 7.0.5-0) date 2023-07-18 22:02:12*
%MOMM*%
%LPD*%
G01*
G04 APERTURE LIST*
%ADD10C,0.200000*%
%ADD11C,0.150000*%
G04 APERTURE END LIST*
D10*
X121654136Y-33641028D02*
X122154136Y-32926742D01*
X122511279Y-33641028D02*
X122511279Y-32141028D01*
X122511279Y-32141028D02*
X121939850Y-32141028D01*
X121939850Y-32141028D02*
X121796993Y-32212457D01*
X121796993Y-32212457D02*
X121725564Y-32283885D01*
X121725564Y-32283885D02*
X121654136Y-32426742D01*
X121654136Y-32426742D02*
X121654136Y-32641028D01*
X121654136Y-32641028D02*
X121725564Y-32783885D01*
X121725564Y-32783885D02*
X121796993Y-32855314D01*
X121796993Y-32855314D02*
X121939850Y-32926742D01*
X121939850Y-32926742D02*
X122511279Y-32926742D01*
X120368422Y-33641028D02*
X120368422Y-32855314D01*
X120368422Y-32855314D02*
X120439850Y-32712457D01*
X120439850Y-32712457D02*
X120582707Y-32641028D01*
X120582707Y-32641028D02*
X120868422Y-32641028D01*
X120868422Y-32641028D02*
X121011279Y-32712457D01*
X120368422Y-33569600D02*
X120511279Y-33641028D01*
X120511279Y-33641028D02*
X120868422Y-33641028D01*
X120868422Y-33641028D02*
X121011279Y-33569600D01*
X121011279Y-33569600D02*
X121082707Y-33426742D01*
X121082707Y-33426742D02*
X121082707Y-33283885D01*
X121082707Y-33283885D02*
X121011279Y-33141028D01*
X121011279Y-33141028D02*
X120868422Y-33069600D01*
X120868422Y-33069600D02*
X120511279Y-33069600D01*
X120511279Y-33069600D02*
X120368422Y-32998171D01*
X119654136Y-32641028D02*
X119654136Y-34141028D01*
X119654136Y-32712457D02*
X119511279Y-32641028D01*
X119511279Y-32641028D02*
X119225564Y-32641028D01*
X119225564Y-32641028D02*
X119082707Y-32712457D01*
X119082707Y-32712457D02*
X119011279Y-32783885D01*
X119011279Y-32783885D02*
X118939850Y-32926742D01*
X118939850Y-32926742D02*
X118939850Y-33355314D01*
X118939850Y-33355314D02*
X119011279Y-33498171D01*
X119011279Y-33498171D02*
X119082707Y-33569600D01*
X119082707Y-33569600D02*
X119225564Y-33641028D01*
X119225564Y-33641028D02*
X119511279Y-33641028D01*
X119511279Y-33641028D02*
X119654136Y-33569600D01*
X118296993Y-33641028D02*
X118296993Y-32141028D01*
X117654136Y-33641028D02*
X117654136Y-32855314D01*
X117654136Y-32855314D02*
X117725564Y-32712457D01*
X117725564Y-32712457D02*
X117868421Y-32641028D01*
X117868421Y-32641028D02*
X118082707Y-32641028D01*
X118082707Y-32641028D02*
X118225564Y-32712457D01*
X118225564Y-32712457D02*
X118296993Y-32783885D01*
X116296993Y-33641028D02*
X116296993Y-32855314D01*
X116296993Y-32855314D02*
X116368421Y-32712457D01*
X116368421Y-32712457D02*
X116511278Y-32641028D01*
X116511278Y-32641028D02*
X116796993Y-32641028D01*
X116796993Y-32641028D02*
X116939850Y-32712457D01*
X116296993Y-33569600D02*
X116439850Y-33641028D01*
X116439850Y-33641028D02*
X116796993Y-33641028D01*
X116796993Y-33641028D02*
X116939850Y-33569600D01*
X116939850Y-33569600D02*
X117011278Y-33426742D01*
X117011278Y-33426742D02*
X117011278Y-33283885D01*
X117011278Y-33283885D02*
X116939850Y-33141028D01*
X116939850Y-33141028D02*
X116796993Y-33069600D01*
X116796993Y-33069600D02*
X116439850Y-33069600D01*
X116439850Y-33069600D02*
X116296993Y-32998171D01*
X115011278Y-33569600D02*
X115154135Y-33641028D01*
X115154135Y-33641028D02*
X115439850Y-33641028D01*
X115439850Y-33641028D02*
X115582707Y-33569600D01*
X115582707Y-33569600D02*
X115654135Y-33426742D01*
X115654135Y-33426742D02*
X115654135Y-32855314D01*
X115654135Y-32855314D02*
X115582707Y-32712457D01*
X115582707Y-32712457D02*
X115439850Y-32641028D01*
X115439850Y-32641028D02*
X115154135Y-32641028D01*
X115154135Y-32641028D02*
X115011278Y-32712457D01*
X115011278Y-32712457D02*
X114939850Y-32855314D01*
X114939850Y-32855314D02*
X114939850Y-32998171D01*
X114939850Y-32998171D02*
X115654135Y-33141028D01*
X114082707Y-33641028D02*
X114225564Y-33569600D01*
X114225564Y-33569600D02*
X114296993Y-33426742D01*
X114296993Y-33426742D02*
X114296993Y-32141028D01*
X112368422Y-33641028D02*
X112368422Y-32141028D01*
X112368422Y-32141028D02*
X111796993Y-32141028D01*
X111796993Y-32141028D02*
X111654136Y-32212457D01*
X111654136Y-32212457D02*
X111582707Y-32283885D01*
X111582707Y-32283885D02*
X111511279Y-32426742D01*
X111511279Y-32426742D02*
X111511279Y-32641028D01*
X111511279Y-32641028D02*
X111582707Y-32783885D01*
X111582707Y-32783885D02*
X111654136Y-32855314D01*
X111654136Y-32855314D02*
X111796993Y-32926742D01*
X111796993Y-32926742D02*
X112368422Y-32926742D01*
X110296993Y-33569600D02*
X110439850Y-33641028D01*
X110439850Y-33641028D02*
X110725565Y-33641028D01*
X110725565Y-33641028D02*
X110868422Y-33569600D01*
X110868422Y-33569600D02*
X110939850Y-33426742D01*
X110939850Y-33426742D02*
X110939850Y-32855314D01*
X110939850Y-32855314D02*
X110868422Y-32712457D01*
X110868422Y-32712457D02*
X110725565Y-32641028D01*
X110725565Y-32641028D02*
X110439850Y-32641028D01*
X110439850Y-32641028D02*
X110296993Y-32712457D01*
X110296993Y-32712457D02*
X110225565Y-32855314D01*
X110225565Y-32855314D02*
X110225565Y-32998171D01*
X110225565Y-32998171D02*
X110939850Y-33141028D01*
X109796993Y-32641028D02*
X109225565Y-32641028D01*
X109582708Y-32141028D02*
X109582708Y-33426742D01*
X109582708Y-33426742D02*
X109511279Y-33569600D01*
X109511279Y-33569600D02*
X109368422Y-33641028D01*
X109368422Y-33641028D02*
X109225565Y-33641028D01*
X108154136Y-33569600D02*
X108296993Y-33641028D01*
X108296993Y-33641028D02*
X108582708Y-33641028D01*
X108582708Y-33641028D02*
X108725565Y-33569600D01*
X108725565Y-33569600D02*
X108796993Y-33426742D01*
X108796993Y-33426742D02*
X108796993Y-32855314D01*
X108796993Y-32855314D02*
X108725565Y-32712457D01*
X108725565Y-32712457D02*
X108582708Y-32641028D01*
X108582708Y-32641028D02*
X108296993Y-32641028D01*
X108296993Y-32641028D02*
X108154136Y-32712457D01*
X108154136Y-32712457D02*
X108082708Y-32855314D01*
X108082708Y-32855314D02*
X108082708Y-32998171D01*
X108082708Y-32998171D02*
X108796993Y-33141028D01*
X107439851Y-33641028D02*
X107439851Y-32641028D01*
X107439851Y-32926742D02*
X107368422Y-32783885D01*
X107368422Y-32783885D02*
X107296994Y-32712457D01*
X107296994Y-32712457D02*
X107154136Y-32641028D01*
X107154136Y-32641028D02*
X107011279Y-32641028D01*
X106582708Y-33569600D02*
X106439851Y-33641028D01*
X106439851Y-33641028D02*
X106154137Y-33641028D01*
X106154137Y-33641028D02*
X106011280Y-33569600D01*
X106011280Y-33569600D02*
X105939851Y-33426742D01*
X105939851Y-33426742D02*
X105939851Y-33355314D01*
X105939851Y-33355314D02*
X106011280Y-33212457D01*
X106011280Y-33212457D02*
X106154137Y-33141028D01*
X106154137Y-33141028D02*
X106368423Y-33141028D01*
X106368423Y-33141028D02*
X106511280Y-33069600D01*
X106511280Y-33069600D02*
X106582708Y-32926742D01*
X106582708Y-32926742D02*
X106582708Y-32855314D01*
X106582708Y-32855314D02*
X106511280Y-32712457D01*
X106511280Y-32712457D02*
X106368423Y-32641028D01*
X106368423Y-32641028D02*
X106154137Y-32641028D01*
X106154137Y-32641028D02*
X106011280Y-32712457D01*
X104225565Y-32283885D02*
X104154137Y-32212457D01*
X104154137Y-32212457D02*
X104011280Y-32141028D01*
X104011280Y-32141028D02*
X103654137Y-32141028D01*
X103654137Y-32141028D02*
X103511280Y-32212457D01*
X103511280Y-32212457D02*
X103439851Y-32283885D01*
X103439851Y-32283885D02*
X103368422Y-32426742D01*
X103368422Y-32426742D02*
X103368422Y-32569600D01*
X103368422Y-32569600D02*
X103439851Y-32783885D01*
X103439851Y-32783885D02*
X104296994Y-33641028D01*
X104296994Y-33641028D02*
X103368422Y-33641028D01*
X102439851Y-32141028D02*
X102296994Y-32141028D01*
X102296994Y-32141028D02*
X102154137Y-32212457D01*
X102154137Y-32212457D02*
X102082709Y-32283885D01*
X102082709Y-32283885D02*
X102011280Y-32426742D01*
X102011280Y-32426742D02*
X101939851Y-32712457D01*
X101939851Y-32712457D02*
X101939851Y-33069600D01*
X101939851Y-33069600D02*
X102011280Y-33355314D01*
X102011280Y-33355314D02*
X102082709Y-33498171D01*
X102082709Y-33498171D02*
X102154137Y-33569600D01*
X102154137Y-33569600D02*
X102296994Y-33641028D01*
X102296994Y-33641028D02*
X102439851Y-33641028D01*
X102439851Y-33641028D02*
X102582709Y-33569600D01*
X102582709Y-33569600D02*
X102654137Y-33498171D01*
X102654137Y-33498171D02*
X102725566Y-33355314D01*
X102725566Y-33355314D02*
X102796994Y-33069600D01*
X102796994Y-33069600D02*
X102796994Y-32712457D01*
X102796994Y-32712457D02*
X102725566Y-32426742D01*
X102725566Y-32426742D02*
X102654137Y-32283885D01*
X102654137Y-32283885D02*
X102582709Y-32212457D01*
X102582709Y-32212457D02*
X102439851Y-32141028D01*
X101368423Y-32283885D02*
X101296995Y-32212457D01*
X101296995Y-32212457D02*
X101154138Y-32141028D01*
X101154138Y-32141028D02*
X100796995Y-32141028D01*
X100796995Y-32141028D02*
X100654138Y-32212457D01*
X100654138Y-32212457D02*
X100582709Y-32283885D01*
X100582709Y-32283885D02*
X100511280Y-32426742D01*
X100511280Y-32426742D02*
X100511280Y-32569600D01*
X100511280Y-32569600D02*
X100582709Y-32783885D01*
X100582709Y-32783885D02*
X101439852Y-33641028D01*
X101439852Y-33641028D02*
X100511280Y-33641028D01*
X100011281Y-32141028D02*
X99082709Y-32141028D01*
X99082709Y-32141028D02*
X99582709Y-32712457D01*
X99582709Y-32712457D02*
X99368424Y-32712457D01*
X99368424Y-32712457D02*
X99225567Y-32783885D01*
X99225567Y-32783885D02*
X99154138Y-32855314D01*
X99154138Y-32855314D02*
X99082709Y-32998171D01*
X99082709Y-32998171D02*
X99082709Y-33355314D01*
X99082709Y-33355314D02*
X99154138Y-33498171D01*
X99154138Y-33498171D02*
X99225567Y-33569600D01*
X99225567Y-33569600D02*
X99368424Y-33641028D01*
X99368424Y-33641028D02*
X99796995Y-33641028D01*
X99796995Y-33641028D02*
X99939852Y-33569600D01*
X99939852Y-33569600D02*
X100011281Y-33498171D01*
X122511279Y-36056028D02*
X122511279Y-34556028D01*
X122511279Y-34556028D02*
X121939850Y-34556028D01*
X121939850Y-34556028D02*
X121796993Y-34627457D01*
X121796993Y-34627457D02*
X121725564Y-34698885D01*
X121725564Y-34698885D02*
X121654136Y-34841742D01*
X121654136Y-34841742D02*
X121654136Y-35056028D01*
X121654136Y-35056028D02*
X121725564Y-35198885D01*
X121725564Y-35198885D02*
X121796993Y-35270314D01*
X121796993Y-35270314D02*
X121939850Y-35341742D01*
X121939850Y-35341742D02*
X122511279Y-35341742D01*
X120796993Y-36056028D02*
X120939850Y-35984600D01*
X120939850Y-35984600D02*
X121011279Y-35913171D01*
X121011279Y-35913171D02*
X121082707Y-35770314D01*
X121082707Y-35770314D02*
X121082707Y-35341742D01*
X121082707Y-35341742D02*
X121011279Y-35198885D01*
X121011279Y-35198885D02*
X120939850Y-35127457D01*
X120939850Y-35127457D02*
X120796993Y-35056028D01*
X120796993Y-35056028D02*
X120582707Y-35056028D01*
X120582707Y-35056028D02*
X120439850Y-35127457D01*
X120439850Y-35127457D02*
X120368422Y-35198885D01*
X120368422Y-35198885D02*
X120296993Y-35341742D01*
X120296993Y-35341742D02*
X120296993Y-35770314D01*
X120296993Y-35770314D02*
X120368422Y-35913171D01*
X120368422Y-35913171D02*
X120439850Y-35984600D01*
X120439850Y-35984600D02*
X120582707Y-36056028D01*
X120582707Y-36056028D02*
X120796993Y-36056028D01*
X119796993Y-35056028D02*
X119511279Y-36056028D01*
X119511279Y-36056028D02*
X119225564Y-35341742D01*
X119225564Y-35341742D02*
X118939850Y-36056028D01*
X118939850Y-36056028D02*
X118654136Y-35056028D01*
X117511278Y-35984600D02*
X117654135Y-36056028D01*
X117654135Y-36056028D02*
X117939850Y-36056028D01*
X117939850Y-36056028D02*
X118082707Y-35984600D01*
X118082707Y-35984600D02*
X118154135Y-35841742D01*
X118154135Y-35841742D02*
X118154135Y-35270314D01*
X118154135Y-35270314D02*
X118082707Y-35127457D01*
X118082707Y-35127457D02*
X117939850Y-35056028D01*
X117939850Y-35056028D02*
X117654135Y-35056028D01*
X117654135Y-35056028D02*
X117511278Y-35127457D01*
X117511278Y-35127457D02*
X117439850Y-35270314D01*
X117439850Y-35270314D02*
X117439850Y-35413171D01*
X117439850Y-35413171D02*
X118154135Y-35556028D01*
X116796993Y-36056028D02*
X116796993Y-35056028D01*
X116796993Y-35341742D02*
X116725564Y-35198885D01*
X116725564Y-35198885D02*
X116654136Y-35127457D01*
X116654136Y-35127457D02*
X116511278Y-35056028D01*
X116511278Y-35056028D02*
X116368421Y-35056028D01*
X114082708Y-36056028D02*
X114082708Y-34556028D01*
X114082708Y-35984600D02*
X114225565Y-36056028D01*
X114225565Y-36056028D02*
X114511279Y-36056028D01*
X114511279Y-36056028D02*
X114654136Y-35984600D01*
X114654136Y-35984600D02*
X114725565Y-35913171D01*
X114725565Y-35913171D02*
X114796993Y-35770314D01*
X114796993Y-35770314D02*
X114796993Y-35341742D01*
X114796993Y-35341742D02*
X114725565Y-35198885D01*
X114725565Y-35198885D02*
X114654136Y-35127457D01*
X114654136Y-35127457D02*
X114511279Y-35056028D01*
X114511279Y-35056028D02*
X114225565Y-35056028D01*
X114225565Y-35056028D02*
X114082708Y-35127457D01*
X113368422Y-36056028D02*
X113368422Y-35056028D01*
X113368422Y-34556028D02*
X113439850Y-34627457D01*
X113439850Y-34627457D02*
X113368422Y-34698885D01*
X113368422Y-34698885D02*
X113296993Y-34627457D01*
X113296993Y-34627457D02*
X113368422Y-34556028D01*
X113368422Y-34556028D02*
X113368422Y-34698885D01*
X112725564Y-35984600D02*
X112582707Y-36056028D01*
X112582707Y-36056028D02*
X112296993Y-36056028D01*
X112296993Y-36056028D02*
X112154136Y-35984600D01*
X112154136Y-35984600D02*
X112082707Y-35841742D01*
X112082707Y-35841742D02*
X112082707Y-35770314D01*
X112082707Y-35770314D02*
X112154136Y-35627457D01*
X112154136Y-35627457D02*
X112296993Y-35556028D01*
X112296993Y-35556028D02*
X112511279Y-35556028D01*
X112511279Y-35556028D02*
X112654136Y-35484600D01*
X112654136Y-35484600D02*
X112725564Y-35341742D01*
X112725564Y-35341742D02*
X112725564Y-35270314D01*
X112725564Y-35270314D02*
X112654136Y-35127457D01*
X112654136Y-35127457D02*
X112511279Y-35056028D01*
X112511279Y-35056028D02*
X112296993Y-35056028D01*
X112296993Y-35056028D02*
X112154136Y-35127457D01*
X111654135Y-35056028D02*
X111082707Y-35056028D01*
X111439850Y-34556028D02*
X111439850Y-35841742D01*
X111439850Y-35841742D02*
X111368421Y-35984600D01*
X111368421Y-35984600D02*
X111225564Y-36056028D01*
X111225564Y-36056028D02*
X111082707Y-36056028D01*
X110582707Y-36056028D02*
X110582707Y-35056028D01*
X110582707Y-35341742D02*
X110511278Y-35198885D01*
X110511278Y-35198885D02*
X110439850Y-35127457D01*
X110439850Y-35127457D02*
X110296992Y-35056028D01*
X110296992Y-35056028D02*
X110154135Y-35056028D01*
X109654136Y-36056028D02*
X109654136Y-35056028D01*
X109654136Y-34556028D02*
X109725564Y-34627457D01*
X109725564Y-34627457D02*
X109654136Y-34698885D01*
X109654136Y-34698885D02*
X109582707Y-34627457D01*
X109582707Y-34627457D02*
X109654136Y-34556028D01*
X109654136Y-34556028D02*
X109654136Y-34698885D01*
X108939850Y-36056028D02*
X108939850Y-34556028D01*
X108939850Y-35127457D02*
X108796993Y-35056028D01*
X108796993Y-35056028D02*
X108511278Y-35056028D01*
X108511278Y-35056028D02*
X108368421Y-35127457D01*
X108368421Y-35127457D02*
X108296993Y-35198885D01*
X108296993Y-35198885D02*
X108225564Y-35341742D01*
X108225564Y-35341742D02*
X108225564Y-35770314D01*
X108225564Y-35770314D02*
X108296993Y-35913171D01*
X108296993Y-35913171D02*
X108368421Y-35984600D01*
X108368421Y-35984600D02*
X108511278Y-36056028D01*
X108511278Y-36056028D02*
X108796993Y-36056028D01*
X108796993Y-36056028D02*
X108939850Y-35984600D01*
X106939850Y-35056028D02*
X106939850Y-36056028D01*
X107582707Y-35056028D02*
X107582707Y-35841742D01*
X107582707Y-35841742D02*
X107511278Y-35984600D01*
X107511278Y-35984600D02*
X107368421Y-36056028D01*
X107368421Y-36056028D02*
X107154135Y-36056028D01*
X107154135Y-36056028D02*
X107011278Y-35984600D01*
X107011278Y-35984600D02*
X106939850Y-35913171D01*
X106439849Y-35056028D02*
X105868421Y-35056028D01*
X106225564Y-34556028D02*
X106225564Y-35841742D01*
X106225564Y-35841742D02*
X106154135Y-35984600D01*
X106154135Y-35984600D02*
X106011278Y-36056028D01*
X106011278Y-36056028D02*
X105868421Y-36056028D01*
X105368421Y-36056028D02*
X105368421Y-35056028D01*
X105368421Y-34556028D02*
X105439849Y-34627457D01*
X105439849Y-34627457D02*
X105368421Y-34698885D01*
X105368421Y-34698885D02*
X105296992Y-34627457D01*
X105296992Y-34627457D02*
X105368421Y-34556028D01*
X105368421Y-34556028D02*
X105368421Y-34698885D01*
X104439849Y-36056028D02*
X104582706Y-35984600D01*
X104582706Y-35984600D02*
X104654135Y-35913171D01*
X104654135Y-35913171D02*
X104725563Y-35770314D01*
X104725563Y-35770314D02*
X104725563Y-35341742D01*
X104725563Y-35341742D02*
X104654135Y-35198885D01*
X104654135Y-35198885D02*
X104582706Y-35127457D01*
X104582706Y-35127457D02*
X104439849Y-35056028D01*
X104439849Y-35056028D02*
X104225563Y-35056028D01*
X104225563Y-35056028D02*
X104082706Y-35127457D01*
X104082706Y-35127457D02*
X104011278Y-35198885D01*
X104011278Y-35198885D02*
X103939849Y-35341742D01*
X103939849Y-35341742D02*
X103939849Y-35770314D01*
X103939849Y-35770314D02*
X104011278Y-35913171D01*
X104011278Y-35913171D02*
X104082706Y-35984600D01*
X104082706Y-35984600D02*
X104225563Y-36056028D01*
X104225563Y-36056028D02*
X104439849Y-36056028D01*
X103296992Y-35056028D02*
X103296992Y-36056028D01*
X103296992Y-35198885D02*
X103225563Y-35127457D01*
X103225563Y-35127457D02*
X103082706Y-35056028D01*
X103082706Y-35056028D02*
X102868420Y-35056028D01*
X102868420Y-35056028D02*
X102725563Y-35127457D01*
X102725563Y-35127457D02*
X102654135Y-35270314D01*
X102654135Y-35270314D02*
X102654135Y-36056028D01*
X100796992Y-36056028D02*
X100796992Y-35056028D01*
X100796992Y-35198885D02*
X100725563Y-35127457D01*
X100725563Y-35127457D02*
X100582706Y-35056028D01*
X100582706Y-35056028D02*
X100368420Y-35056028D01*
X100368420Y-35056028D02*
X100225563Y-35127457D01*
X100225563Y-35127457D02*
X100154135Y-35270314D01*
X100154135Y-35270314D02*
X100154135Y-36056028D01*
X100154135Y-35270314D02*
X100082706Y-35127457D01*
X100082706Y-35127457D02*
X99939849Y-35056028D01*
X99939849Y-35056028D02*
X99725563Y-35056028D01*
X99725563Y-35056028D02*
X99582706Y-35127457D01*
X99582706Y-35127457D02*
X99511277Y-35270314D01*
X99511277Y-35270314D02*
X99511277Y-36056028D01*
X98582706Y-36056028D02*
X98725563Y-35984600D01*
X98725563Y-35984600D02*
X98796992Y-35913171D01*
X98796992Y-35913171D02*
X98868420Y-35770314D01*
X98868420Y-35770314D02*
X98868420Y-35341742D01*
X98868420Y-35341742D02*
X98796992Y-35198885D01*
X98796992Y-35198885D02*
X98725563Y-35127457D01*
X98725563Y-35127457D02*
X98582706Y-35056028D01*
X98582706Y-35056028D02*
X98368420Y-35056028D01*
X98368420Y-35056028D02*
X98225563Y-35127457D01*
X98225563Y-35127457D02*
X98154135Y-35198885D01*
X98154135Y-35198885D02*
X98082706Y-35341742D01*
X98082706Y-35341742D02*
X98082706Y-35770314D01*
X98082706Y-35770314D02*
X98154135Y-35913171D01*
X98154135Y-35913171D02*
X98225563Y-35984600D01*
X98225563Y-35984600D02*
X98368420Y-36056028D01*
X98368420Y-36056028D02*
X98582706Y-36056028D01*
X96796992Y-36056028D02*
X96796992Y-34556028D01*
X96796992Y-35984600D02*
X96939849Y-36056028D01*
X96939849Y-36056028D02*
X97225563Y-36056028D01*
X97225563Y-36056028D02*
X97368420Y-35984600D01*
X97368420Y-35984600D02*
X97439849Y-35913171D01*
X97439849Y-35913171D02*
X97511277Y-35770314D01*
X97511277Y-35770314D02*
X97511277Y-35341742D01*
X97511277Y-35341742D02*
X97439849Y-35198885D01*
X97439849Y-35198885D02*
X97368420Y-35127457D01*
X97368420Y-35127457D02*
X97225563Y-35056028D01*
X97225563Y-35056028D02*
X96939849Y-35056028D01*
X96939849Y-35056028D02*
X96796992Y-35127457D01*
X95439849Y-35056028D02*
X95439849Y-36056028D01*
X96082706Y-35056028D02*
X96082706Y-35841742D01*
X96082706Y-35841742D02*
X96011277Y-35984600D01*
X96011277Y-35984600D02*
X95868420Y-36056028D01*
X95868420Y-36056028D02*
X95654134Y-36056028D01*
X95654134Y-36056028D02*
X95511277Y-35984600D01*
X95511277Y-35984600D02*
X95439849Y-35913171D01*
X94511277Y-36056028D02*
X94654134Y-35984600D01*
X94654134Y-35984600D02*
X94725563Y-35841742D01*
X94725563Y-35841742D02*
X94725563Y-34556028D01*
X93368420Y-35984600D02*
X93511277Y-36056028D01*
X93511277Y-36056028D02*
X93796992Y-36056028D01*
X93796992Y-36056028D02*
X93939849Y-35984600D01*
X93939849Y-35984600D02*
X94011277Y-35841742D01*
X94011277Y-35841742D02*
X94011277Y-35270314D01*
X94011277Y-35270314D02*
X93939849Y-35127457D01*
X93939849Y-35127457D02*
X93796992Y-35056028D01*
X93796992Y-35056028D02*
X93511277Y-35056028D01*
X93511277Y-35056028D02*
X93368420Y-35127457D01*
X93368420Y-35127457D02*
X93296992Y-35270314D01*
X93296992Y-35270314D02*
X93296992Y-35413171D01*
X93296992Y-35413171D02*
X94011277Y-35556028D01*
D11*
X121147744Y-41888628D02*
X121147744Y-42364819D01*
X121481077Y-41364819D02*
X121147744Y-41888628D01*
X121147744Y-41888628D02*
X120814411Y-41364819D01*
X119957268Y-42364819D02*
X120528696Y-42364819D01*
X120242982Y-42364819D02*
X120242982Y-41364819D01*
X120242982Y-41364819D02*
X120338220Y-41507676D01*
X120338220Y-41507676D02*
X120433458Y-41602914D01*
X120433458Y-41602914D02*
X120528696Y-41650533D01*
X118766791Y-41983866D02*
X118004887Y-41983866D01*
X116242982Y-42364819D02*
X116814410Y-42364819D01*
X116528696Y-42364819D02*
X116528696Y-41364819D01*
X116528696Y-41364819D02*
X116623934Y-41507676D01*
X116623934Y-41507676D02*
X116719172Y-41602914D01*
X116719172Y-41602914D02*
X116814410Y-41650533D01*
X115385839Y-41364819D02*
X115576315Y-41364819D01*
X115576315Y-41364819D02*
X115671553Y-41412438D01*
X115671553Y-41412438D02*
X115719172Y-41460057D01*
X115719172Y-41460057D02*
X115814410Y-41602914D01*
X115814410Y-41602914D02*
X115862029Y-41793390D01*
X115862029Y-41793390D02*
X115862029Y-42174342D01*
X115862029Y-42174342D02*
X115814410Y-42269580D01*
X115814410Y-42269580D02*
X115766791Y-42317200D01*
X115766791Y-42317200D02*
X115671553Y-42364819D01*
X115671553Y-42364819D02*
X115481077Y-42364819D01*
X115481077Y-42364819D02*
X115385839Y-42317200D01*
X115385839Y-42317200D02*
X115338220Y-42269580D01*
X115338220Y-42269580D02*
X115290601Y-42174342D01*
X115290601Y-42174342D02*
X115290601Y-41936247D01*
X115290601Y-41936247D02*
X115338220Y-41841009D01*
X115338220Y-41841009D02*
X115385839Y-41793390D01*
X115385839Y-41793390D02*
X115481077Y-41745771D01*
X115481077Y-41745771D02*
X115671553Y-41745771D01*
X115671553Y-41745771D02*
X115766791Y-41793390D01*
X115766791Y-41793390D02*
X115814410Y-41841009D01*
X115814410Y-41841009D02*
X115862029Y-41936247D01*
X114100124Y-42364819D02*
X114100124Y-41364819D01*
X114100124Y-41364819D02*
X113766791Y-42079104D01*
X113766791Y-42079104D02*
X113433458Y-41364819D01*
X113433458Y-41364819D02*
X113433458Y-42364819D01*
X112957267Y-42364819D02*
X112957267Y-41364819D01*
X112957267Y-41841009D02*
X112385839Y-41841009D01*
X112385839Y-42364819D02*
X112385839Y-41364819D01*
X112004886Y-41698152D02*
X111481077Y-41698152D01*
X111481077Y-41698152D02*
X112004886Y-42364819D01*
X112004886Y-42364819D02*
X111481077Y-42364819D01*
X121147744Y-43498628D02*
X121147744Y-43974819D01*
X121481077Y-42974819D02*
X121147744Y-43498628D01*
X121147744Y-43498628D02*
X120814411Y-42974819D01*
X120528696Y-43070057D02*
X120481077Y-43022438D01*
X120481077Y-43022438D02*
X120385839Y-42974819D01*
X120385839Y-42974819D02*
X120147744Y-42974819D01*
X120147744Y-42974819D02*
X120052506Y-43022438D01*
X120052506Y-43022438D02*
X120004887Y-43070057D01*
X120004887Y-43070057D02*
X119957268Y-43165295D01*
X119957268Y-43165295D02*
X119957268Y-43260533D01*
X119957268Y-43260533D02*
X120004887Y-43403390D01*
X120004887Y-43403390D02*
X120576315Y-43974819D01*
X120576315Y-43974819D02*
X119957268Y-43974819D01*
X118766791Y-43593866D02*
X118004887Y-43593866D01*
X116862029Y-42974819D02*
X116242982Y-42974819D01*
X116242982Y-42974819D02*
X116576315Y-43355771D01*
X116576315Y-43355771D02*
X116433458Y-43355771D01*
X116433458Y-43355771D02*
X116338220Y-43403390D01*
X116338220Y-43403390D02*
X116290601Y-43451009D01*
X116290601Y-43451009D02*
X116242982Y-43546247D01*
X116242982Y-43546247D02*
X116242982Y-43784342D01*
X116242982Y-43784342D02*
X116290601Y-43879580D01*
X116290601Y-43879580D02*
X116338220Y-43927200D01*
X116338220Y-43927200D02*
X116433458Y-43974819D01*
X116433458Y-43974819D02*
X116719172Y-43974819D01*
X116719172Y-43974819D02*
X116814410Y-43927200D01*
X116814410Y-43927200D02*
X116862029Y-43879580D01*
X115862029Y-43070057D02*
X115814410Y-43022438D01*
X115814410Y-43022438D02*
X115719172Y-42974819D01*
X115719172Y-42974819D02*
X115481077Y-42974819D01*
X115481077Y-42974819D02*
X115385839Y-43022438D01*
X115385839Y-43022438D02*
X115338220Y-43070057D01*
X115338220Y-43070057D02*
X115290601Y-43165295D01*
X115290601Y-43165295D02*
X115290601Y-43260533D01*
X115290601Y-43260533D02*
X115338220Y-43403390D01*
X115338220Y-43403390D02*
X115909648Y-43974819D01*
X115909648Y-43974819D02*
X115290601Y-43974819D01*
X114862029Y-43879580D02*
X114814410Y-43927200D01*
X114814410Y-43927200D02*
X114862029Y-43974819D01*
X114862029Y-43974819D02*
X114909648Y-43927200D01*
X114909648Y-43927200D02*
X114862029Y-43879580D01*
X114862029Y-43879580D02*
X114862029Y-43974819D01*
X114481077Y-42974819D02*
X113814411Y-42974819D01*
X113814411Y-42974819D02*
X114242982Y-43974819D01*
X113004887Y-42974819D02*
X113195363Y-42974819D01*
X113195363Y-42974819D02*
X113290601Y-43022438D01*
X113290601Y-43022438D02*
X113338220Y-43070057D01*
X113338220Y-43070057D02*
X113433458Y-43212914D01*
X113433458Y-43212914D02*
X113481077Y-43403390D01*
X113481077Y-43403390D02*
X113481077Y-43784342D01*
X113481077Y-43784342D02*
X113433458Y-43879580D01*
X113433458Y-43879580D02*
X113385839Y-43927200D01*
X113385839Y-43927200D02*
X113290601Y-43974819D01*
X113290601Y-43974819D02*
X113100125Y-43974819D01*
X113100125Y-43974819D02*
X113004887Y-43927200D01*
X113004887Y-43927200D02*
X112957268Y-43879580D01*
X112957268Y-43879580D02*
X112909649Y-43784342D01*
X112909649Y-43784342D02*
X112909649Y-43546247D01*
X112909649Y-43546247D02*
X112957268Y-43451009D01*
X112957268Y-43451009D02*
X113004887Y-43403390D01*
X113004887Y-43403390D02*
X113100125Y-43355771D01*
X113100125Y-43355771D02*
X113290601Y-43355771D01*
X113290601Y-43355771D02*
X113385839Y-43403390D01*
X113385839Y-43403390D02*
X113433458Y-43451009D01*
X113433458Y-43451009D02*
X113481077Y-43546247D01*
X112338220Y-43403390D02*
X112433458Y-43355771D01*
X112433458Y-43355771D02*
X112481077Y-43308152D01*
X112481077Y-43308152D02*
X112528696Y-43212914D01*
X112528696Y-43212914D02*
X112528696Y-43165295D01*
X112528696Y-43165295D02*
X112481077Y-43070057D01*
X112481077Y-43070057D02*
X112433458Y-43022438D01*
X112433458Y-43022438D02*
X112338220Y-42974819D01*
X112338220Y-42974819D02*
X112147744Y-42974819D01*
X112147744Y-42974819D02*
X112052506Y-43022438D01*
X112052506Y-43022438D02*
X112004887Y-43070057D01*
X112004887Y-43070057D02*
X111957268Y-43165295D01*
X111957268Y-43165295D02*
X111957268Y-43212914D01*
X111957268Y-43212914D02*
X112004887Y-43308152D01*
X112004887Y-43308152D02*
X112052506Y-43355771D01*
X112052506Y-43355771D02*
X112147744Y-43403390D01*
X112147744Y-43403390D02*
X112338220Y-43403390D01*
X112338220Y-43403390D02*
X112433458Y-43451009D01*
X112433458Y-43451009D02*
X112481077Y-43498628D01*
X112481077Y-43498628D02*
X112528696Y-43593866D01*
X112528696Y-43593866D02*
X112528696Y-43784342D01*
X112528696Y-43784342D02*
X112481077Y-43879580D01*
X112481077Y-43879580D02*
X112433458Y-43927200D01*
X112433458Y-43927200D02*
X112338220Y-43974819D01*
X112338220Y-43974819D02*
X112147744Y-43974819D01*
X112147744Y-43974819D02*
X112052506Y-43927200D01*
X112052506Y-43927200D02*
X112004887Y-43879580D01*
X112004887Y-43879580D02*
X111957268Y-43784342D01*
X111957268Y-43784342D02*
X111957268Y-43593866D01*
X111957268Y-43593866D02*
X112004887Y-43498628D01*
X112004887Y-43498628D02*
X112052506Y-43451009D01*
X112052506Y-43451009D02*
X112147744Y-43403390D01*
X111528696Y-43974819D02*
X111528696Y-42974819D01*
X111433458Y-43593866D02*
X111147744Y-43974819D01*
X111147744Y-43308152D02*
X111528696Y-43689104D01*
X110719172Y-43974819D02*
X110719172Y-42974819D01*
X110719172Y-43451009D02*
X110147744Y-43451009D01*
X110147744Y-43974819D02*
X110147744Y-42974819D01*
X109766791Y-43308152D02*
X109242982Y-43308152D01*
X109242982Y-43308152D02*
X109766791Y-43974819D01*
X109766791Y-43974819D02*
X109242982Y-43974819D01*
X107250000Y-40500000D02*
X122500000Y-40500000D01*
X122500000Y-45000000D01*
X107250000Y-45000000D01*
X107250000Y-40500000D01*
M02*
